<?xml version="1.0" encoding="iso-8859-1"?>
<!-- Generator: Adobe Illustrator 16.0.0, SVG Export Plug-In . SVG Version: 6.00 Build 0)  -->
<!DOCTYPE svg PUBLIC "-//W3C//DTD SVG 1.1//EN" "http://www.w3.org/Graphics/SVG/1.1/DTD/svg11.dtd">
<svg version="1.1" id="Capa_1" xmlns="http://www.w3.org/2000/svg" xmlns:xlink="http://www.w3.org/1999/xlink" x="0px" y="0px"
	 width="950px" height="950px" viewBox="0 0 950 950" style="enable-background:new 0 0 950 950;" xml:space="preserve">
<g>
	<g>
		<path d="M230.493,737.135L451.89,940.982C458.42,946.994,466.71,950,475,950s16.58-3.006,23.11-9.018l221.396-203.85
			c9.227-8.492,3.216-23.893-9.325-23.893h-59.098V292.99c0-17.739-14.38-32.119-32.119-32.119h-289.62
			c-16.805,0-30.429,13.623-30.429,30.429v421.938h-59.099C227.277,713.24,221.268,728.641,230.493,737.135z"/>
		<path d="M618.965,130.299h-289.62c-16.805,0-30.429,13.623-30.429,30.429v37.384c0,16.806,13.624,30.429,30.429,30.429h289.62
			c17.739,0,32.119-14.38,32.119-32.119v-34.005C651.084,144.679,636.704,130.299,618.965,130.299z"/>
		<path d="M651.084,32.119C651.084,14.38,636.704,0,618.965,0h-289.62c-16.805,0-30.429,13.623-30.429,30.429v37.385
			c0,16.806,13.624,30.429,30.429,30.429h289.62c17.739,0,32.119-14.38,32.119-32.119V32.119z"/>
	</g>
</g>
<g>
</g>
<g>
</g>
<g>
</g>
<g>
</g>
<g>
</g>
<g>
</g>
<g>
</g>
<g>
</g>
<g>
</g>
<g>
</g>
<g>
</g>
<g>
</g>
<g>
</g>
<g>
</g>
<g>
</g>
</svg>
