<svg xmlns="http://www.w3.org/2000/svg"  viewBox="0 0 333333 202115" shape-rendering="geometricPrecision" text-rendering="geometricPrecision" image-rendering="optimizeQuality" fill-rule="evenodd" clip-rule="evenodd"><path d="M0 202115c9-71945 67918-32105 73124-76227 571-4806-10765-23113-13358-31894-5557-8861-7550-22928-1467-32291 2416-3721 1385-17286 1385-22407 0-14474 6824-22789 16080-30523 3378-2820 3971-6219 8909-7413 24386-5898 64281 7521 64281 37937 0 6448-1482 18285 2016 23350 3403 4921 3807 12053 2581 18707-1325 1043-2639 2141-3939 3289-2915 2570-5811 5438-8658 8531-130 119-258 239-383 365l-23 23 8 8c-1365 1363-2402 3094-2935 5092-1136 4254 302 8589 3359 11351-3597 6707-6831 13063-6278 15876 890 4524 4250 8702 9074 12537l6 90c9 237 23 476 47 716 163 1656 436 3221 815 4628 425 1570 1006 3112 1744 4568 1273 2516 2981 4720 5144 6454 1096 878 2274 1621 3538 2213 338 380 665 751 978 1114l546 640c-9940 1908-16810 3680-22615 9429-6425 6363-8882 15327-8882 31468 0 807 69 1597 203 2366L1 202114zM208952 78873c12219-71999 82569-70295 93144 5152 6951 49670 36729 47887-9758 47887h-18557c-71 12639-2047 19106 11077 26209 13093 7085 48475 10734 48475 28694v11501c0 924-761 1679-1685 1679l-81559-1 2-248c0-16144-2465-25109-8891-31468-5076-5024-10963-7010-18992-8705 1589-730 3103-1507 4515-2354 11526-6906 9568-13850 9492-25309h-5011c-85-583-185-1150-303-1694l-18 4c-533-2512-1442-4954-2732-7144-226-382-463-757-711-1124v-1671c1559-5729 1944-12047 946-17905-1123-6588-3988-12768-8877-17361-2531-2390-5344-4161-8400-5383-710-285-1429-537-2156-759zm-60354 22693c17445-19252 37589-29711 52689-12593 3963 188 7504 1501 10459 4291 6214 5838 7175 16766 4338 25442v7574c1922 1266 3165 3635 3728 6331 375 1735 469 3658 281 5487-187 1900-656 3706-1407 5206-1078 2134-2720 3634-4948 3962-2181 2322-4315 4807-6214 7199-2087 2626-3869 5112-5112 7152-961 1571-657 2603-305 3776 164 586 352 1196 469 1852 3822 821 7269 1478 10364 2063 19674 3682 25794 4831 25794 30437 0 1313-1056 2368-2369 2368h-97548c-1313 0-2369-1055-2369-2369 0-25606 6097-26755 25794-30437 3119-586 6612-1243 10434-2063 140-515 305-985 469-1454 400-1125 798-2250-374-4150-1243-2040-3025-4526-5112-7152-1899-2391-4033-4877-6214-7198-2228-328-3869-1829-4948-3963-750-1477-1219-3306-1406-5205-164-1829-70-3752 281-5487 563-2697 1782-5042 3681-6308l-2556-1524c-679-7574 1314-20728-7925-23214l24-23z"/></svg>