<svg version="1.1" id="Capa_1" x="0px" y="0px" viewBox="0 0 405.908 405.908" style="enable-background:new 0 0 405.908 405.908;" width="50px"><g><path d="M212.502,326.586h-19.096c-1.626,0-3,1.374-3,3v12.508c0,1.626,1.374,3,3,3h19.096c1.626,0,3-1.374,3-3v-12.508C215.502,327.96,214.128,326.586,212.502,326.586z"/><path d="M289.795,37.95H116.113c-11.028,0-20,8.972-20,20v290.008c0,11.028,8.972,20,20,20h173.682c11.028,0,20-8.972,20-20V57.95C309.795,46.922,300.823,37.95,289.795,37.95z M188.087,52.922h29.734c2.762,0,5,2.239,5,5c0,2.761-2.238,5-5,5h-29.734c-2.762,0-5-2.239-5-5C183.087,55.161,185.325,52.922,188.087,52.922z M225.502,342.094c0,7.168-5.832,13-13,13h-19.096c-7.168,0-13-5.832-13-13v-12.508c0-7.168,5.832-13,13-13h19.096c7.168,0,13,5.832,13,13V342.094z M287.561,301.216c0,2.75-2.25,5-5,5H123.347c-2.75,0-5-2.25-5-5V80.395c0-2.75,2.25-5,5-5h159.213c2.75,0,5,2.25,5,5V301.216z"/><path d="M383.154,122.157c-3.433-4.326-9.722-5.05-14.05-1.617c-4.325,3.433-5.05,9.723-1.616,14.049c12.051,15.185,18.42,33.455,18.42,52.837c0,19.59-6.486,38.011-18.759,53.27c-3.461,4.304-2.777,10.599,1.526,14.06c1.847,1.486,4.06,2.208,6.261,2.208c2.924,0,5.823-1.277,7.799-3.733c14.943-18.581,23.173-41.951,23.173-65.804C405.908,163.484,398.04,140.914,383.154,122.157z"/><path d="M352.526,145.032c-3.433-4.326-9.722-5.05-14.05-1.617c-4.325,3.433-5.05,9.723-1.616,14.049c6.854,8.637,10.477,19.03,10.477,30.054c0,11.144-3.689,21.623-10.671,30.303c-3.461,4.304-2.777,10.599,1.526,14.06c1.848,1.486,4.061,2.208,6.261,2.208c2.924,0,5.823-1.277,7.799-3.733c9.728-12.097,15.085-27.31,15.085-42.837C367.338,171.934,362.216,157.242,352.526,145.032z"/><path d="M20,187.911c0-19.59,6.486-38.011,18.759-53.27c3.461-4.304,2.777-10.599-1.526-14.059c-4.3-3.46-10.598-2.779-14.059,1.525C8.229,140.688,0,164.057,0,187.911c0,23.943,7.868,46.513,22.754,65.27c1.974,2.488,4.893,3.784,7.84,3.784c2.178,0,4.371-0.708,6.21-2.167c4.325-3.433,5.05-9.723,1.616-14.049C26.369,225.563,20,207.292,20,187.911z"/><path d="M67.715,143.456c-4.302-3.46-10.598-2.779-14.059,1.525c-9.728,12.097-15.085,27.31-15.085,42.837c0,15.585,5.122,30.277,14.812,42.487c1.974,2.488,4.893,3.784,7.84,3.784c2.178,0,4.371-0.708,6.21-2.167c4.325-3.433,5.05-9.723,1.616-14.049c-6.854-8.637-10.478-19.03-10.478-30.054c0-11.144,3.689-21.623,10.671-30.303C72.702,153.211,72.019,146.917,67.715,143.456z"/></g></svg>