<?xml version="1.0" encoding="utf-8"?>
<!-- Svg Vector Icons : http://www.onlinewebfonts.com/icon -->
<!DOCTYPE svg PUBLIC "-//W3C//DTD SVG 1.1//EN" "http://www.w3.org/Graphics/SVG/1.1/DTD/svg11.dtd">
<svg version="1.1" xmlns="http://www.w3.org/2000/svg" xmlns:xlink="http://www.w3.org/1999/xlink" x="0px" y="0px" viewBox="0 0 1000 1000" enable-background="new 0 0 1000 1000" xml:space="preserve">
<metadata> Svg Vector Icons : http://www.onlinewebfonts.com/icon </metadata>
<g><g transform="translate(0.000000,511.000000) scale(0.100000,-0.100000)"><path d="M3863.4,4047.7c-248-90-420.6-243.1-527.6-476.5c-53.5-116.7-63.2-172.6-70.5-442.5l-9.7-311.2H3100c-150.7,0-155.6,2.4-155.6,60.8c0,99.7-63.2,196.9-155.6,240.7c-109.4,51.1-726.9,55.9-850.9,4.9c-102.1-41.3-160.5-124-160.5-223.7v-75.4l-466.8-12.2c-408.4-12.2-488.7-19.4-610.2-65.6c-179.9-70.5-352.5-209.1-452.2-364.7C109.7,2168.4,100,2102.7,100,1356.3V682.9l68.1-24.3c36.5-12.2,688-250.4,1446.5-525.1l1380.9-500.8h2003.3h2003.3L8383,131c758.5,274.7,1410.1,510.5,1449,525.1l65.6,26.7v673.4c0,525.1-7.3,700.2-36.5,795c-77.8,260.1-296.6,491.1-564,595.6c-124,46.2-199.4,55.9-607.8,65.6l-469.2,9.7v77.8c0,99.7-58.4,182.3-160.4,223.7c-124,51.1-741.5,46.2-850.9-4.9c-92.4-43.8-155.6-141-155.6-240.7c0-58.3-4.9-60.8-155.6-60.8h-155.6l-7.3,311.2c-9.7,291.7-14.6,318.5-90,471.7c-87.5,179.9-231,320.9-413.3,413.3c-114.3,55.9-114.3,55.9-1196.1,60.8C4186.8,4079.2,3933.9,4074.4,3863.4,4047.7z M6073.4,3507.9c150.7-121.6,187.2-206.7,196.9-464.4l9.7-226.1H5001.2H3722.4v165.3c0,299,82.7,466.8,279.6,573.8c63.2,34,192.1,36.5,1026,31.6l950.6-4.9L6073.4,3507.9z"/><path d="M104.9-1529.4l7.3-1645.9l70.5-150.7c85.1-184.7,274.7-372,469.2-464.3l141-65.6h4205.9h4205.9l141,65.6c182.3,85.1,379.3,274.7,469.2,449.8l70.5,141l7.3,1658.1l7.3,1660.5l-262.6-94.8c-145.9-53.5-778-282-1410.1-510.5L7079.9-902.2H4998.8H2917.7L1770.2-486.5C1140.5-257.9,506-29.4,360.1,24.1L100,118.9L104.9-1529.4z"/></g></g>
</svg>